# xmcd
#
# Track frame offsets: 
#        150
#        15226
#        34831
#        57187
#        74475
#        90919
#        121549
#        137737
#        151565
#        165697
#        179020
#        207493
#        224957
#
# Disc length: 3140 seconds
#
# Revision: 0
# Processed by: cddbd v1.5.2PL0 Copyright (c) Steve Scherf et al.
# Submitted via: ExactAudioCopy v0.95b3
#
DISCID=b00c420d
DTITLE=Violeta de Outono - Ilhas
DYEAR=2005
DGENRE=Progressive Rock
TTITLE0=Línguas de Gato em Gelatina
TTITLE1=Mahavishnu
TTITLE2=Blues
TTITLE3=Estrelas
TTITLE4=Ecos
TTITLE5=Eclipse
TTITLE6=Supernova
TTITLE7=Azul
TTITLE8=Transe
TTITLE9=Cartas
TTITLE10=Jupiter
TTITLE11=Dança
TTITLE12=Moon Princess
EXTD=
EXTT0=
EXTT1=
EXTT2=
EXTT3=
EXTT4=
EXTT5=
EXTT6=
EXTT7=
EXTT8=
EXTT9=
EXTT10=
EXTT11=
EXTT12=
PLAYORDER=
